<svg width="28" height="28" viewBox="0 0 28 28" fill="none" xmlns="http://www.w3.org/2000/svg">
<g id="Icon / apps">
<path id="Vector" d="M3.5 4.30769C3.5 4.09348 3.5851 3.88804 3.73657 3.73657C3.88804 3.5851 4.09348 3.5 4.30769 3.5H7.53846C7.75267 3.5 7.95811 3.5851 8.10959 3.73657C8.26106 3.88804 8.34615 4.09348 8.34615 4.30769V7.53846C8.34615 7.75267 8.26106 7.95811 8.10959 8.10959C7.95811 8.26106 7.75267 8.34615 7.53846 8.34615H4.30769C4.09348 8.34615 3.88804 8.26106 3.73657 8.10959C3.5851 7.95811 3.5 7.75267 3.5 7.53846V4.30769ZM11.5769 4.30769C11.5769 4.09348 11.662 3.88804 11.8135 3.73657C11.965 3.5851 12.1704 3.5 12.3846 3.5H15.6154C15.8296 3.5 16.035 3.5851 16.1865 3.73657C16.338 3.88804 16.4231 4.09348 16.4231 4.30769V7.53846C16.4231 7.75267 16.338 7.95811 16.1865 8.10959C16.035 8.26106 15.8296 8.34615 15.6154 8.34615H12.3846C12.1704 8.34615 11.965 8.26106 11.8135 8.10959C11.662 7.95811 11.5769 7.75267 11.5769 7.53846V4.30769ZM19.6538 4.30769C19.6538 4.09348 19.7389 3.88804 19.8904 3.73657C20.0419 3.5851 20.2473 3.5 20.4615 3.5H23.6923C23.9065 3.5 24.112 3.5851 24.2634 3.73657C24.4149 3.88804 24.5 4.09348 24.5 4.30769V7.53846C24.5 7.75267 24.4149 7.95811 24.2634 8.10959C24.112 8.26106 23.9065 8.34615 23.6923 8.34615H20.4615C20.2473 8.34615 20.0419 8.26106 19.8904 8.10959C19.7389 7.95811 19.6538 7.75267 19.6538 7.53846V4.30769ZM3.5 12.3846C3.5 12.1704 3.5851 11.965 3.73657 11.8135C3.88804 11.662 4.09348 11.5769 4.30769 11.5769H7.53846C7.75267 11.5769 7.95811 11.662 8.10959 11.8135C8.26106 11.965 8.34615 12.1704 8.34615 12.3846V15.6154C8.34615 15.8296 8.26106 16.035 8.10959 16.1865C7.95811 16.338 7.75267 16.4231 7.53846 16.4231H4.30769C4.09348 16.4231 3.88804 16.338 3.73657 16.1865C3.5851 16.035 3.5 15.8296 3.5 15.6154V12.3846ZM11.5769 12.3846C11.5769 12.1704 11.662 11.965 11.8135 11.8135C11.965 11.662 12.1704 11.5769 12.3846 11.5769H15.6154C15.8296 11.5769 16.035 11.662 16.1865 11.8135C16.338 11.965 16.4231 12.1704 16.4231 12.3846V15.6154C16.4231 15.8296 16.338 16.035 16.1865 16.1865C16.035 16.338 15.8296 16.4231 15.6154 16.4231H12.3846C12.1704 16.4231 11.965 16.338 11.8135 16.1865C11.662 16.035 11.5769 15.8296 11.5769 15.6154V12.3846ZM19.6538 12.3846C19.6538 12.1704 19.7389 11.965 19.8904 11.8135C20.0419 11.662 20.2473 11.5769 20.4615 11.5769H23.6923C23.9065 11.5769 24.112 11.662 24.2634 11.8135C24.4149 11.965 24.5 12.1704 24.5 12.3846V15.6154C24.5 15.8296 24.4149 16.035 24.2634 16.1865C24.112 16.338 23.9065 16.4231 23.6923 16.4231H20.4615C20.2473 16.4231 20.0419 16.338 19.8904 16.1865C19.7389 16.035 19.6538 15.8296 19.6538 15.6154V12.3846ZM3.5 20.4615C3.5 20.2473 3.5851 20.0419 3.73657 19.8904C3.88804 19.7389 4.09348 19.6538 4.30769 19.6538H7.53846C7.75267 19.6538 7.95811 19.7389 8.10959 19.8904C8.26106 20.0419 8.34615 20.2473 8.34615 20.4615V23.6923C8.34615 23.9065 8.26106 24.112 8.10959 24.2634C7.95811 24.4149 7.75267 24.5 7.53846 24.5H4.30769C4.09348 24.5 3.88804 24.4149 3.73657 24.2634C3.5851 24.112 3.5 23.9065 3.5 23.6923V20.4615ZM11.5769 20.4615C11.5769 20.2473 11.662 20.0419 11.8135 19.8904C11.965 19.7389 12.1704 19.6538 12.3846 19.6538H15.6154C15.8296 19.6538 16.035 19.7389 16.1865 19.8904C16.338 20.0419 16.4231 20.2473 16.4231 20.4615V23.6923C16.4231 23.9065 16.338 24.112 16.1865 24.2634C16.035 24.4149 15.8296 24.5 15.6154 24.5H12.3846C12.1704 24.5 11.965 24.4149 11.8135 24.2634C11.662 24.112 11.5769 23.9065 11.5769 23.6923V20.4615ZM19.6538 20.4615C19.6538 20.2473 19.7389 20.0419 19.8904 19.8904C20.0419 19.7389 20.2473 19.6538 20.4615 19.6538H23.6923C23.9065 19.6538 24.112 19.7389 24.2634 19.8904C24.4149 20.0419 24.5 20.2473 24.5 20.4615V23.6923C24.5 23.9065 24.4149 24.112 24.2634 24.2634C24.112 24.4149 23.9065 24.5 23.6923 24.5H20.4615C20.2473 24.5 20.0419 24.4149 19.8904 24.2634C19.7389 24.112 19.6538 23.9065 19.6538 23.6923V20.4615Z" fill="url(#paint0_linear_1737_61)"/>
</g>
<defs>
<linearGradient id="paint0_linear_1737_61" x1="24.4587" y1="14" x2="3.60325" y2="14" gradientUnits="userSpaceOnUse">
<stop stop-color="#B28DF2"/>
<stop offset="0.495598" stop-color="#8C9FD4"/>
<stop offset="1" stop-color="#8CD4C1"/>
</linearGradient>
</defs>
</svg>
