<svg width="28" height="28" viewBox="0 0 28 28" fill="none" xmlns="http://www.w3.org/2000/svg">
<g clip-path="url(#clip0_1768_72)">
<path fill-rule="evenodd" clip-rule="evenodd" d="M14 12.3214C13.0672 13.3508 11.7023 14 10.1818 14C7.37018 14 5.0909 11.7801 5.0909 9.04168C5.0909 6.30327 7.37018 4.08334 10.1818 4.08334C11.7023 4.08334 13.0671 4.73258 14 5.76195C14.7923 6.63608 15.2732 7.7844 15.2732 9.04211C15.2732 10.2996 14.7921 11.4473 14 12.3214ZM10.1818 15.2396C6.78364 15.2396 0 16.9006 0 20.1979V21.713C0 22.93 1.01301 23.9167 2.26262 23.9167H9.89897H18.101H18.1467C19.3754 23.8932 20.3641 22.9158 20.3641 21.7134V20.1984C20.3641 19.4302 19.9959 18.7508 19.3882 18.1606C17.3873 16.217 12.7885 15.2396 10.1818 15.2396ZM17.0833 9.04211C17.0833 10.713 16.4573 12.2414 15.4213 13.4172C16.1356 13.7891 16.9516 14 17.8182 14C20.6298 14 22.9091 11.7801 22.9091 9.04168C22.9091 6.30327 20.6298 4.08334 17.8182 4.08334C16.9514 4.08334 16.1352 4.29433 15.4207 4.66646C16.4571 5.84227 17.0833 7.37097 17.0833 9.04211ZM28 20.1979C28 17.0047 21.6379 15.3461 18.1498 15.2445C18.9974 15.644 19.8092 16.1352 20.4787 16.737C21.4028 17.5677 22.1742 18.7265 22.1742 20.1984V21.7134C22.1742 22.5287 21.9217 23.2865 21.4887 23.9167H25.7374C26.987 23.9167 28 22.93 28 21.713V20.1979Z" fill="url(#paint0_linear_1768_72)"/>
</g>
<defs>
<linearGradient id="paint0_linear_1768_72" x1="27.9449" y1="14" x2="0.137661" y2="14" gradientUnits="userSpaceOnUse">
<stop stop-color="#B28DF2"/>
<stop offset="0.495598" stop-color="#8C9FD4"/>
<stop offset="1" stop-color="#8CD4C1"/>
</linearGradient>
<clipPath id="clip0_1768_72">
<rect width="28" height="28" fill="white"/>
</clipPath>
</defs>
</svg>
