<svg width="28" height="28" viewBox="0 0 28 28" fill="none" xmlns="http://www.w3.org/2000/svg">
<path fill-rule="evenodd" clip-rule="evenodd" d="M4.66671 4.66666H11.6667L14 6.99999H23.3334C24.6167 6.99999 25.6667 8.04999 25.6667 9.33332V21C25.6667 22.2833 24.6167 23.3333 23.3334 23.3333H4.66671C3.38337 23.3333 2.33337 22.2833 2.33337 21L2.34504 6.99999C2.34504 5.71666 3.38337 4.66666 4.66671 4.66666ZM10.2887 18.5866C12.3399 20.6378 15.6635 20.6378 17.7118 18.5866C19.763 16.5354 19.763 13.2118 17.7118 11.1634C15.6606 9.1122 12.3371 9.1122 10.2887 11.1634C8.23753 13.2146 8.23753 16.5382 10.2887 18.5866ZM16.1001 16.7579H11.9264C10.9336 16.7579 10.1006 15.9448 10.1206 14.9549C10.1405 13.9935 10.9251 13.2203 11.8922 13.2203H16.1372C17.1043 13.2203 17.8888 13.9935 17.9088 14.9549C17.9259 15.9477 17.0957 16.7579 16.1001 16.7579ZM13.2558 13.8109C12.574 13.8109 11.9835 14.3073 11.9977 14.9891C12.0091 15.6481 12.5654 16.1674 13.2273 16.1674H14.8049C15.4696 16.1674 16.0402 15.6481 16.0516 14.9891C16.063 14.3101 15.4582 13.8109 14.7764 13.8109H13.2558Z" fill="url(#paint0_linear_1768_80)"/>
<defs>
<linearGradient id="paint0_linear_1768_80" x1="25.6208" y1="14" x2="2.44809" y2="14" gradientUnits="userSpaceOnUse">
<stop stop-color="#B28DF2"/>
<stop offset="0.495598" stop-color="#8C9FD4"/>
<stop offset="1" stop-color="#8CD4C1"/>
</linearGradient>
</defs>
</svg>
