<svg width="28" height="28" viewBox="0 0 28 28" fill="none" xmlns="http://www.w3.org/2000/svg">
<g clip-path="url(#clip0_1768_59)">
<path fill-rule="evenodd" clip-rule="evenodd" d="M14.9041 7.00002H23.3334C24.6284 7.00002 25.6667 8.03835 25.6667 9.33335V21C25.6667 22.295 24.6284 23.3334 23.3334 23.3334H4.66671C3.37171 23.3334 2.33337 22.295 2.33337 21L2.34504 7.00002C2.34504 5.70502 3.37171 4.66669 4.66671 4.66669H10.7626C11.3402 4.66669 11.8928 4.8928 12.2928 5.2928L13.3739 6.3739C13.7739 6.77391 14.3265 7.00002 14.9041 7.00002ZM20.8056 15.867H18.8612V17.7337C18.8612 18.2492 18.4259 18.667 17.8889 18.667C17.352 18.667 16.9167 18.2492 16.9167 17.7337V15.867H14.9723C14.4353 15.867 14 15.4492 14 14.9337C14 14.4182 14.4353 14.0004 14.9723 14.0004H16.9167V12.1337C16.9167 11.6182 17.352 11.2004 17.8889 11.2004C18.4259 11.2004 18.8612 11.6182 18.8612 12.1337V14.0004H20.8056C21.3425 14.0004 21.7778 14.4182 21.7778 14.9337C21.7778 15.4492 21.3425 15.867 20.8056 15.867Z" fill="url(#paint0_linear_1768_59)"/>
</g>
<defs>
<linearGradient id="paint0_linear_1768_59" x1="25.6208" y1="14" x2="2.44809" y2="14" gradientUnits="userSpaceOnUse">
<stop stop-color="#B28DF2"/>
<stop offset="0.495598" stop-color="#8C9FD4"/>
<stop offset="1" stop-color="#8CD4C1"/>
</linearGradient>
<clipPath id="clip0_1768_59">
<rect width="28" height="28" fill="white"/>
</clipPath>
</defs>
</svg>
